<svg width="32" height="32" viewBox="0 0 32 32" fill="none" xmlns="http://www.w3.org/2000/svg">
<path d="M17.4414 27.499C17.7185 27.0213 18.3299 26.8586 18.8076 27.1357C19.2852 27.4129 19.448 28.0243 19.1709 28.502C18.8486 29.0575 18.3856 29.5193 17.8291 29.8398C17.2726 30.1602 16.6412 30.3291 15.999 30.3291C15.3568 30.329 14.7254 30.1604 14.1689 29.8398C13.6125 29.5193 13.1504 29.0574 12.8281 28.502C12.551 28.0243 12.7138 27.4129 13.1914 27.1357C13.6691 26.8588 14.2805 27.0214 14.5576 27.499C14.7041 27.7514 14.9151 27.9608 15.168 28.1064C15.4208 28.252 15.7073 28.329 15.999 28.3291C16.2909 28.3291 16.5781 28.2521 16.8311 28.1064C17.0839 27.9608 17.2949 27.7514 17.4414 27.499ZM16 1.66699C18.3869 1.66699 20.6764 2.61491 22.3643 4.30273C24.052 5.99055 25 8.28011 25 10.667C25 15.1861 25.9671 18.0187 26.8779 19.6885C27.3346 20.5256 27.7825 21.0812 28.1006 21.417C28.2599 21.5851 28.3882 21.6985 28.4688 21.7656C28.5088 21.799 28.5367 21.8218 28.5518 21.833C28.5531 21.834 28.5545 21.8351 28.5557 21.8359C28.9215 22.0806 29.0846 22.5357 28.957 22.957C28.8292 23.3785 28.4405 23.667 28 23.667H4C3.55954 23.667 3.17083 23.3785 3.04297 22.957C2.91542 22.5358 3.0786 22.0806 3.44434 21.8359C3.44543 21.8351 3.44692 21.834 3.44824 21.833C3.46326 21.8218 3.49122 21.799 3.53125 21.7656C3.61178 21.6985 3.74015 21.5851 3.89941 21.417C4.21752 21.0812 4.6654 20.5256 5.12207 19.6885C6.03288 18.0187 6.99995 15.1861 7 10.667C7 8.28013 7.94803 5.99054 9.63574 4.30273C11.3236 2.61492 13.6131 1.66701 16 1.66699ZM3.43555 21.8418C3.43555 21.8418 3.43626 21.8407 3.4375 21.8398C3.43822 21.8394 3.43933 21.8386 3.44043 21.8379L3.43555 21.8418ZM28.5596 21.8379C28.5607 21.8387 28.5618 21.8393 28.5625 21.8398C28.5638 21.8408 28.5645 21.8418 28.5645 21.8418C28.5641 21.8415 28.5607 21.8396 28.5557 21.8359L28.5596 21.8379ZM16 3.66699C14.1435 3.66701 12.3625 4.40406 11.0498 5.7168C9.73717 7.02953 9 8.81057 9 10.667C8.99995 15.4806 7.96702 18.6487 6.87793 20.6455C6.66842 21.0296 6.45666 21.3689 6.25195 21.667H25.748C25.5433 21.3689 25.3316 21.0296 25.1221 20.6455C24.033 18.6487 23 15.4806 23 10.667C23 8.81054 22.2629 7.02954 20.9502 5.7168C19.6374 4.40404 17.8565 3.66699 16 3.66699Z" fill="black"/>
</svg>
