<svg width="24" height="24" viewBox="0 0 24 24" fill="none" xmlns="http://www.w3.org/2000/svg">
<path d="M10.4287 1.41797C11.3996 0.860783 12.6004 0.860783 13.5713 1.41797L20.4541 5.36816C21.4043 5.91362 22 6.91817 22 8.0166V15.9834C22 17.0818 21.4043 18.0864 20.4541 18.6318L13.5713 22.582C12.6004 23.1392 11.3996 23.1392 10.4287 22.582L3.5459 18.6318C2.59574 18.0864 2 17.0818 2 15.9834V8.0166C2 6.91817 2.59574 5.91362 3.5459 5.36816L10.4287 1.41797ZM12.5762 3.15234C12.2217 2.94891 11.7783 2.94891 11.4238 3.15234L4.54199 7.10254C4.19868 7.29958 4 7.65076 4 8.0166V15.9834C4 16.3492 4.19868 16.7004 4.54199 16.8975L11.4238 20.8477C11.7783 21.0511 12.2217 21.0511 12.5762 20.8477L19.458 16.8975C19.8013 16.7004 20 16.3492 20 15.9834V8.0166C20 7.65076 19.8013 7.29958 19.458 7.10254L12.5762 3.15234ZM12 15C12.5523 15 13 15.4477 13 16C13 16.5523 12.5523 17 12 17C11.4477 17 11 16.5523 11 16C11 15.4477 11.4477 15 12 15ZM12 7C12.5523 7 13 7.44772 13 8V13C13 13.5523 12.5523 14 12 14C11.4477 14 11 13.5523 11 13V8C11 7.44772 11.4477 7 12 7Z" fill="#6B7280"/>
</svg>
