<svg width="24" height="24" viewBox="0 0 24 24" fill="none" xmlns="http://www.w3.org/2000/svg">
<path d="M15.4678 1.01465C16.1547 1.08278 16.8006 1.38655 17.293 1.87891L22.1211 6.70703C22.6836 7.26957 22.9999 8.03258 23 8.82812V15.1719C22.9999 15.9674 22.6836 16.7304 22.1211 17.293L17.293 22.1211C16.7304 22.6836 15.9674 22.9999 15.1719 23H8.82812C8.03258 22.9999 7.26957 22.6836 6.70703 22.1211L1.87891 17.293C1.38655 16.8006 1.08278 16.1547 1.01465 15.4678L1 15.1719V8.82812C1.00008 8.03258 1.31637 7.26957 1.87891 6.70703L6.70703 1.87891C7.26957 1.31637 8.03258 1.00008 8.82812 1H15.1719L15.4678 1.01465ZM8.82812 3C8.56302 3.00008 8.30856 3.1055 8.12109 3.29297L3.29297 8.12109C3.1055 8.30856 3.00008 8.56302 3 8.82812V15.1719L3.00488 15.2705C3.02763 15.4994 3.1289 15.7148 3.29297 15.8789L8.12109 20.707C8.30856 20.8945 8.56302 20.9999 8.82812 21H15.1719C15.437 20.9999 15.6914 20.8945 15.8789 20.707L20.707 15.8789C20.8945 15.6914 20.9999 15.437 21 15.1719V8.82812C20.9999 8.56302 20.8945 8.30856 20.707 8.12109L15.8789 3.29297C15.7148 3.1289 15.4994 3.02763 15.2705 3.00488L15.1719 3H8.82812ZM12 15C12.5523 15 13 15.4477 13 16C13 16.5523 12.5523 17 12 17C11.4477 17 11 16.5523 11 16C11 15.4477 11.4477 15 12 15ZM12 7C12.5523 7 13 7.44772 13 8V13C13 13.5523 12.5523 14 12 14C11.4477 14 11 13.5523 11 13V8C11 7.44772 11.4477 7 12 7Z" fill="#6B7280"/>
</svg>
