<svg width="24" height="24" viewBox="0 0 24 24" fill="none" xmlns="http://www.w3.org/2000/svg">
<path d="M9.06055 4.66016C10.3247 2.44672 13.6754 2.4466 14.9395 4.66016L21.5928 16.3145C22.864 18.5415 21.0524 20.9997 18.6533 21H5.34668C2.94732 21 1.13574 18.5416 2.40723 16.3145L9.06055 4.66016ZM13.2031 5.65234C12.7067 4.78288 11.2934 4.78299 10.7969 5.65234L4.14355 17.3057C3.76254 17.973 4.21411 19 5.34668 19H18.6533C19.7855 18.9998 20.2372 17.973 19.8564 17.3057L13.2031 5.65234ZM12 15.5C12.5521 15.5002 13 15.9478 13 16.5C13 17.0522 12.5521 17.4998 12 17.5C11.4477 17.5 11 17.0523 11 16.5C11 15.9477 11.4477 15.5 12 15.5ZM12 7.5C12.5521 7.50021 13 7.94785 13 8.5V13.5C13 14.0522 12.5521 14.4998 12 14.5C11.4477 14.5 11 14.0523 11 13.5V8.5C11 7.94772 11.4477 7.5 12 7.5Z" fill="#6B7280"/>
</svg>
