<svg width="24" height="24" viewBox="0 0 24 24" fill="none" xmlns="http://www.w3.org/2000/svg">
<path d="M13 14C14.3261 14 15.5975 14.5272 16.5352 15.4648C17.4728 16.4025 18 17.6739 18 19V21C18 21.5523 17.5523 22 17 22C16.4477 22 16 21.5523 16 21V19C16 18.2044 15.6837 17.4415 15.1211 16.8789C14.6289 16.3867 13.9835 16.0829 13.2969 16.0146L13 16H6C5.20435 16 4.44152 16.3163 3.87891 16.8789C3.3163 17.4415 3 18.2044 3 19V21C3 21.5523 2.55228 22 2 22C1.44772 22 1 21.5523 1 21V19C1 17.6739 1.52716 16.4025 2.46484 15.4648C3.40253 14.5272 4.67392 14 6 14H13ZM18.0322 14.8799C18.1703 14.3452 18.7153 14.024 19.25 14.1621C20.3226 14.4391 21.2734 15.0639 21.9521 15.9395C22.6308 16.815 22.9991 17.8913 23 18.999V21C22.9999 21.5522 22.5522 22 22 22C21.4478 22 21.0001 21.5522 21 21V19.001L20.9893 18.7529C20.9411 18.1768 20.7275 17.6248 20.3711 17.165C19.9639 16.6397 19.3936 16.2638 18.75 16.0977C18.2153 15.9595 17.8942 15.4146 18.0322 14.8799ZM9.5 2C12.2614 2 14.5 4.23858 14.5 7C14.5 9.76142 12.2614 12 9.5 12C6.73858 12 4.5 9.76142 4.5 7C4.5 4.23858 6.73858 2 9.5 2ZM15.1006 2.91895C15.3113 2.40874 15.8959 2.16556 16.4062 2.37598C18.2203 3.12457 19.5 4.91194 19.5 7C19.4999 9.10412 18.2007 10.9024 16.3643 11.6406C15.8519 11.8466 15.2696 11.5982 15.0635 11.0859C14.8575 10.5736 15.1058 9.9912 15.6182 9.78516C16.7229 9.34107 17.4999 8.25994 17.5 7C17.5 5.74975 16.7349 4.67605 15.6436 4.22559C15.133 4.01491 14.8899 3.42947 15.1006 2.91895ZM9.5 4C7.84315 4 6.5 5.34315 6.5 7C6.5 8.65685 7.84315 10 9.5 10C11.1569 10 12.5 8.65685 12.5 7C12.5 5.34315 11.1569 4 9.5 4Z" fill="#808080"/>
</svg>
