<svg width="256" height="256" viewBox="0 0 256 256" fill="none" xmlns="http://www.w3.org/2000/svg">
  <!-- Background Circle -->
  <circle cx="128" cy="128" r="120" fill="#F3F4F6" stroke="#E5E7EB" stroke-width="2"/>
  
  <!-- House Icon -->
  <g transform="translate(64, 64)">
    <!-- House Base -->
    <rect x="20" y="60" width="88" height="60" fill="#3B82F6" rx="4"/>
    
    <!-- Roof -->
    <polygon points="20,60 64,20 108,60" fill="#1D4ED8"/>
    
    <!-- Door -->
    <rect x="50" y="80" width="20" height="40" fill="#1E40AF" rx="2"/>
    
    <!-- Windows -->
    <rect x="30" y="70" width="12" height="12" fill="#93C5FD" rx="2"/>
    <rect x="78" y="70" width="12" height="12" fill="#93C5FD" rx="2"/>
    
    <!-- Chimney -->
    <rect x="80" y="40" width="8" height="20" fill="#DC2626" rx="1"/>
  </g>
  
  <!-- Question Mark -->
  <g transform="translate(128, 180)">
    <circle cx="0" cy="0" r="20" fill="#FEF3C7" stroke="#F59E0B" stroke-width="2"/>
    <text x="0" y="8" text-anchor="middle" font-family="Arial, sans-serif" font-size="24" font-weight="bold" fill="#D97706">?</text>
  </g>
  
  <!-- Search Icon -->
  <g transform="translate(180, 80)">
    <circle cx="0" cy="0" r="16" fill="none" stroke="#6B7280" stroke-width="3"/>
    <line x1="10" y1="10" x2="20" y2="20" stroke="#6B7280" stroke-width="3" stroke-linecap="round"/>
  </g>
  
  <!-- Floating Elements -->
  <g opacity="0.6">
    <circle cx="40" cy="40" r="4" fill="#3B82F6"/>
    <circle cx="200" cy="60" r="3" fill="#8B5CF6"/>
    <circle cx="60" cy="200" r="5" fill="#10B981"/>
    <circle cx="200" cy="200" r="3" fill="#F59E0B"/>
  </g>
</svg>
